<svg xmlns="http://www.w3.org/2000/svg" viewBox="0 0 200 240" width="200" height="240">
  <!-- Document background -->
  <path d="M 20 0 L 140 0 L 180 40 L 180 240 L 20 240 Z" fill="#ffffff" stroke="#d1d5db" stroke-width="2"/>
  
  <!-- Folded corner -->
  <path d="M 140 0 L 140 40 L 180 40 Z" fill="#e5e7eb" stroke="#d1d5db" stroke-width="2"/>
  
  <!-- Video screen background -->
  <rect x="40" y="70" width="120" height="80" rx="6" fill="#1f2937"/>
  
  <!-- Play button circle -->
  <circle cx="100" cy="110" r="25" fill="#ef4444" opacity="0.9"/>
  
  <!-- Play button triangle -->
  <path d="M 92 97 L 92 123 L 113 110 Z" fill="#ffffff"/>
  
  <!-- Film strip decoration on sides -->
  <rect x="40" y="70" width="8" height="80" fill="#6b7280"/>
  <rect x="152" y="70" width="8" height="80" fill="#6b7280"/>
  
  <!-- Film strip holes -->
  <rect x="42" y="75" width="4" height="6" rx="1" fill="#1f2937"/>
  <rect x="42" y="90" width="4" height="6" rx="1" fill="#1f2937"/>
  <rect x="42" y="105" width="4" height="6" rx="1" fill="#1f2937"/>
  <rect x="42" y="120" width="4" height="6" rx="1" fill="#1f2937"/>
  <rect x="42" y="135" width="4" height="6" rx="1" fill="#1f2937"/>
  
  <rect x="154" y="75" width="4" height="6" rx="1" fill="#1f2937"/>
  <rect x="154" y="90" width="4" height="6" rx="1" fill="#1f2937"/>
  <rect x="154" y="105" width="4" height="6" rx="1" fill="#1f2937"/>
  <rect x="154" y="120" width="4" height="6" rx="1" fill="#1f2937"/>
  <rect x="154" y="135" width="4" height="6" rx="1" fill="#1f2937"/>
  
  <!-- VIDEO label -->
  <rect x="50" y="170" width="100" height="30" rx="4" fill="#ef4444"/>
  <text x="100" y="191" font-family="Arial, sans-serif" font-size="16" font-weight="bold" fill="#ffffff" text-anchor="middle">VIDEO</text>
</svg>
